<svg width="15" height="31" xmlns="http://www.w3.org/2000/svg" xmlns:xlink="http://www.w3.org/1999/xlink" xmlns:svgjs="http://svgjs.com/svgjs" viewBox="0.265 0 14.47 31" fill="#3d58a6"><svg xmlns="http://www.w3.org/2000/svg" width="15" height="31" viewBox="0 0.579 14.003 30"><path paint-order="stroke fill markers" fill-rule="evenodd" d="M4.615 2.125C5.784 1.01 7.448.635 9.018.588c1.66-.015 3.32-.006 4.98-.005a653.44 653.44 0 0 1-.001 5.254c-1.073-.002-2.146.003-3.22-.002-.68-.042-1.378.473-1.502 1.148-.016 1.172-.006 2.344-.005 3.516 1.574.007 3.147-.002 4.72.004-.115 1.695-.325 3.383-.572 5.064-1.39.013-2.78-.002-4.17.007-.012 5 .006 10-.01 14.999-2.064.009-4.13-.003-6.194.006-.04-5 .003-10.003-.022-15.004-1.007-.011-2.015.007-3.022-.009.004-1.681 0-3.362.002-5.042 1.006-.012 2.014.003 3.02-.007.03-1.634-.031-3.27.032-4.903.1-1.293.594-2.596 1.56-3.49z"/></svg></svg>