<svg width="101" height="118" xmlns="http://www.w3.org/2000/svg" xmlns:xlink="http://www.w3.org/1999/xlink" xmlns:svgjs="http://svgjs.com/svgjs" viewBox="0.105 0 100.79 118" fill="#3d58a6"><svg xmlns="http://www.w3.org/2000/svg" width="101" height="118" viewBox="0.781 0.203 99.994 117.068"><path paint-order="stroke fill markers" fill-rule="evenodd" d="M37.897 115.815a3.815 3.815 0 0 0 2.997 1.456h47.765c1.56 0 2.963-.952 3.545-2.405.074-.182.999-2.632 1.348-3.613a162.126 162.126 0 0 0 2.916-9.022c1.484-5.099 2.658-10.09 3.405-14.81 1.616-10.202 1.166-18.363-2.215-23.958-3.517-5.819-9.795-10.008-17.988-12.974-4.256-1.541-8.777-2.655-13.292-3.42-1.577-.268-2.557-.384-2.557-.384V11.699c0-6.346-5.147-11.496-11.464-11.496h-1.91c-6.33 0-11.465 5.164-11.465 11.515l.007 60.637L26.263 61.17C18.09 53.987 6.72 55.895 1.34 65.353c-.84 1.477-.713 3.174.256 4.403l36.302 46.059zM10.569 66.144c3.12-2.4 7.231-2.211 10.662.803l19.057 16.749c2.47 2.172 6.337.409 6.337-2.888v-69.09c0-2.113 1.715-3.838 3.821-3.838h1.911a3.83 3.83 0 0 1 3.821 3.819V50.1a3.831 3.831 0 0 0 3.544 3.828c.237.018.724.063 1.424.143 1.19.136 2.523.323 3.96.566 4.097.695 8.19 1.703 11.972 3.073 6.703 2.427 11.607 5.698 14.047 9.735 2.192 3.628 2.555 10.217 1.201 18.77-.692 4.367-1.794 9.051-3.194 13.86a153.797 153.797 0 0 1-2.776 8.592c-.33.928-.312.927-.312.927h-43.24L9.382 67.268s.545-.63 1.187-1.124z"/></svg></svg>