<svg width="86" height="128" xmlns="http://www.w3.org/2000/svg" xmlns:xlink="http://www.w3.org/1999/xlink" xmlns:svgjs="http://svgjs.com/svgjs" viewBox="0.433 0 85.134 128" fill="#3d58a6"><svg xmlns="http://www.w3.org/2000/svg" width="86" height="128" viewBox="0.315 0.357 84.81 127.513"><path paint-order="stroke fill markers" fill-rule="evenodd" d="M84.427 82.873a1.978 1.978 0 0 0-2.786.227L67.948 99.17l-8.75-6.932a1.981 1.981 0 0 0-2.776.315c-.68.85-.538 2.089.316 2.766l10.247 8.12a1.982 1.982 0 0 0 2.738-.266L84.655 85.65a1.963 1.963 0 0 0-.228-2.776zm-13.868 33.186a1.973 1.973 0 0 0-1.977 1.969c0 3.256-2.661 5.905-5.931 5.905H10.199c-3.27 0-5.93-2.649-5.93-5.905V10.2c0-3.256 2.66-5.906 5.93-5.906H62.65c3.27 0 5.931 2.65 5.931 5.906v60.253c0 1.088.886 1.969 1.977 1.969 1.09 0 1.977-.881 1.977-1.97V36.845a3.29 3.29 0 0 0 2.64-3.216v-8.612a3.288 3.288 0 0 0-2.64-3.215V10.2c0-5.428-4.434-9.843-9.885-9.843H10.199C4.748.357.315 4.772.315 10.2v107.828c0 5.427 4.433 9.842 9.884 9.842H62.65c5.018 0 9.174-3.741 9.803-8.571.054-.178.083-.367.083-.563v-.708a1.975 1.975 0 0 0-1.978-1.97zM46.309 10.387c1.093 0 1.978-.88 1.978-1.968A1.973 1.973 0 0 0 46.31 6.45H26.542a1.972 1.972 0 0 0-1.977 1.969c0 1.088.885 1.968 1.977 1.968H46.31zM30.93 117.126c0 3.017 2.467 5.472 5.497 5.472s5.496-2.455 5.496-5.472c0-3.017-2.466-5.471-5.496-5.471-3.03 0-5.496 2.455-5.496 5.47zm7.039 0a1.54 1.54 0 0 1-1.542 1.536 1.54 1.54 0 0 1-1.542-1.536 1.54 1.54 0 0 1 1.542-1.534c.85 0 1.542.689 1.542 1.534zM60.048 72.3a2.175 2.175 0 0 0 2.18-2.172V26.063c0-3.665-3.536-6.881-7.567-6.881H18.917c-4.172 0-7.567 3.381-7.567 7.537v73.476c0 4.156 3.395 7.536 7.567 7.536h31.186c1.205 0 2.18-.972 2.18-2.172a2.175 2.175 0 0 0-2.18-2.172H18.917a3.205 3.205 0 0 1-3.207-3.194V26.719a3.205 3.205 0 0 1 3.207-3.194H54.66c1.859 0 3.208 1.516 3.208 2.538v44.066c0 1.2.975 2.17 2.18 2.17z"/></svg></svg>