<svg width="101" height="31" xmlns="http://www.w3.org/2000/svg" xmlns:xlink="http://www.w3.org/1999/xlink" xmlns:svgjs="http://svgjs.com/svgjs" viewBox="30 27 101 31"><svg width="9" height="17" xmlns="http://www.w3.org/2000/svg" xmlns:xlink="http://www.w3.org/1999/xlink" xmlns:svgjs="http://svgjs.com/svgjs" viewBox="0.223 0 8.554 17" fill="#ee4036" x="30" y="35"><svg xmlns="http://www.w3.org/2000/svg" xmlns:xlink="http://www.w3.org/1999/xlink" width="9" height="17" viewBox="0 0.663 8.102 16.102"><path paint-order="stroke fill markers" fill-rule="evenodd" d="M7.44 16.765c-.102 0-.255-.051-.51-.204l-5.81-5.605c-.305-.255-.508-.46-.61-.612a2.167 2.167 0 0 1-.357-.51A1.41 1.41 0 0 1 0 9.173v-.815c0-.255.05-.458.153-.662.153-.204.255-.408.357-.51l.61-.611L6.88.816a.862.862 0 0 1 .51-.153c.204 0 .356.05.509.203.102.153.204.306.204.51V2.548c0 .102-.051.153-.051.204 0 .05-.051.153-.102.204-.051.102-.102.153-.102.153 0 .05-.051.102-.152.203l-.153.153s-.102.05-.204.204c-.102.102-.204.153-.204.204L2.65 8.51c-.102.102-.204.204-.204.306 0 .102.05.204.204.306l4.484 4.433c.051.05.102.102.204.153.102.102.153.152.204.152l.153.153.152.153c.05.05.05.102.102.153.051.051.051.153.102.204 0 .05.051.153.051.204V16a.652.652 0 0 1-.204.509c-.153.204-.305.255-.458.255z"/></svg></svg><svg width="9" height="31" xmlns="http://www.w3.org/2000/svg" xmlns:xlink="http://www.w3.org/1999/xlink" xmlns:svgjs="http://svgjs.com/svgjs" viewBox="0.444 0 8.111 31" fill="#ee4036" x="42" y="27"><svg xmlns="http://www.w3.org/2000/svg" xmlns:xlink="http://www.w3.org/1999/xlink" width="9" height="31" viewBox="0.841 0 8 30.574"><path paint-order="stroke fill markers" fill-rule="evenodd" d="M1.045 30.574c-.102 0-.204-.153-.204-.408v-.05-.102L5.529.611C5.631.204 5.733 0 5.886 0h2.752c.152 0 .203.153.203.408V.56L4.153 29.963c-.102.407-.203.611-.356.611H1.045z"/></svg></svg><svg width="16" height="25" xmlns="http://www.w3.org/2000/svg" xmlns:xlink="http://www.w3.org/1999/xlink" xmlns:svgjs="http://svgjs.com/svgjs" viewBox="0.446 0 15.107 25" fill="#ee4036" x="54" y="30"><svg xmlns="http://www.w3.org/2000/svg" xmlns:xlink="http://www.w3.org/1999/xlink" width="16" height="25" viewBox="0.765 0.465 14.319 23.695"><path paint-order="stroke fill markers" fill-rule="evenodd" d="M1.275 24.16c-.204 0-.306-.051-.408-.153-.102-.102-.102-.306-.102-.611V1.229c0-.305.05-.56.102-.611.102-.102.204-.153.408-.153h2.904c.204 0 .306.051.408.153.102.102.102.306.102.61v8.766c0 .102 0 .204.051.255.051.102.102.102.153.102h5.962c.051 0 .101-.051.152-.102.05-.102.102-.153.102-.255V1.229c0-.305.05-.51.153-.611.102-.102.204-.153.408-.153h2.955c.153 0 .306.051.357.153.102.102.102.306.102.61v22.168c0 .305-.051.56-.102.611a.463.463 0 0 1-.357.153H11.67c-.102 0-.204 0-.255-.051l-.204-.204a1.277 1.277 0 0 1-.102-.51v-10.09c0-.254-.051-.355-.203-.355H4.893c-.153 0-.204.1-.204.356v10.09c0 .305-.051.509-.153.611-.102.102-.204.153-.408.153H1.275z"/></svg></svg><svg width="14" height="25" xmlns="http://www.w3.org/2000/svg" xmlns:xlink="http://www.w3.org/1999/xlink" xmlns:svgjs="http://svgjs.com/svgjs" viewBox="0.563 0 12.875 25" fill="#ee4036" x="71" y="30"><svg xmlns="http://www.w3.org/2000/svg" xmlns:xlink="http://www.w3.org/1999/xlink" width="14" height="25" viewBox="0.785 0.465 12.229 23.746"><path paint-order="stroke fill markers" fill-rule="evenodd" d="M5.473 24.16c-.153 0-.306-.051-.357-.153-.102-.102-.153-.306-.153-.611V3.522c0-.254-.051-.407-.204-.407H1.294.989c-.051 0-.102-.051-.153-.153-.051-.102-.051-.255-.051-.46V1.179c0-.305.05-.51.102-.56.102-.102.203-.153.407-.153h11.262c.153 0 .305.051.356.153.102.102.102.306.102.56v1.325c0 .255-.051.459-.102.51-.051.05-.203.102-.407.102H9.091c-.153 0-.204.153-.204.407v19.874c0 .305-.051.56-.153.662-.102.102-.204.153-.408.153H5.473v-.051z"/></svg></svg><svg width="19" height="25" xmlns="http://www.w3.org/2000/svg" xmlns:xlink="http://www.w3.org/1999/xlink" xmlns:svgjs="http://svgjs.com/svgjs" viewBox="0.212 0 18.576 25" fill="#ee4036" x="86" y="30"><svg xmlns="http://www.w3.org/2000/svg" xmlns:xlink="http://www.w3.org/1999/xlink" width="19" height="25" viewBox="0.46 0.414 17.682 23.797"><path paint-order="stroke fill markers" fill-rule="evenodd" d="M.919 24.16c-.306 0-.46-.255-.46-.815v-.102L1.378 1.33c0-.611.204-.917.51-.917h3.159a.86.86 0 0 1 .51.153c.153.102.255.306.306.611l3.363 15.593c0 .05.05.102.05.102h.103c.05 0 .05-.051.05-.102L12.793 1.28c.102-.51.357-.815.764-.815h3.21c.306 0 .459.357.459.917l.917 21.912v.102c0 .509-.153.815-.509.815h-2.191c-.306 0-.51-.306-.51-.866l-.611-17.02c0-.051 0-.102-.051-.102s-.051 0-.102.05L10.55 23.397c-.102.509-.357.815-.663.815H8.613c-.305 0-.56-.255-.662-.815L4.435 6.376c0-.051-.051-.102-.102-.051v.102L3.67 23.294c0 .61-.153.866-.459.866H.919z"/></svg></svg><svg width="11" height="25" xmlns="http://www.w3.org/2000/svg" xmlns:xlink="http://www.w3.org/1999/xlink" xmlns:svgjs="http://svgjs.com/svgjs" viewBox="0.339 0 10.322 25" fill="#ee4036" x="108" y="30"><svg xmlns="http://www.w3.org/2000/svg" xmlns:xlink="http://www.w3.org/1999/xlink" width="11" height="25" viewBox="0.474 0.465 9.783 23.695"><path paint-order="stroke fill markers" fill-rule="evenodd" d="M.932 24.16c-.153 0-.306-.051-.356-.153-.102-.102-.102-.306-.102-.611V1.229c0-.305.051-.56.102-.611A.46.46 0 0 1 .932.465h2.956c.153 0 .305.051.356.153.102.102.102.306.102.61v19.977c0 .254.102.356.255.356h5.198c.153 0 .305.05.356.102.102.102.102.255.102.51v1.325c0 .254-.051.458-.102.56-.101.102-.203.102-.356.102H.932z"/></svg></svg><svg width="9" height="17" xmlns="http://www.w3.org/2000/svg" xmlns:xlink="http://www.w3.org/1999/xlink" xmlns:svgjs="http://svgjs.com/svgjs" viewBox="0.277 0 8.447 17" fill="#ee4036" x="122" y="35"><svg xmlns="http://www.w3.org/2000/svg" width="9" height="17" viewBox="0.13 0.561 8.051 16.204"><path paint-order="stroke fill markers" fill-rule="evenodd" d="M.843 16.765c-.203 0-.356-.051-.458-.204-.102-.153-.204-.306-.204-.51v-.917-.203c0-.051 0-.153.051-.204 0-.051.05-.102.05-.153.052-.051.052-.102.052-.153 0-.051.051-.102.102-.153.051-.051.102-.102.102-.153 0-.051.05-.051.102-.153l.153-.152c.05 0 .101-.051.152-.153.102-.051.153-.102.153-.153l4.484-4.586c.102-.102.153-.204.153-.306 0-.102-.051-.204-.203-.306L1.098 3.873c-.051-.051-.102-.102-.255-.204C.742 3.567.64 3.516.64 3.465l-.153-.153C.385 3.21.334 3.16.334 3.109c0-.051-.051-.102-.102-.204S.181 2.752.13 2.65v-.306-1.07c0-.204.051-.357.204-.51A.646.646 0 0 1 .793.562c.152 0 .305.05.509.204L7.111 6.42l.612.61c.102.103.203.256.305.46.102.204.153.459.153.662V9.223c0 .05-.051.153-.051.204-.051.102-.051.153-.051.204 0 .051-.051.102-.102.204a.645.645 0 0 1-.101.153s-.051.102-.153.204l-.153.152-.204.204c-.102.102-.204.153-.204.204L1.404 16.51c-.255.204-.408.255-.561.255z"/></svg></svg></svg>