<svg width="26" height="31" xmlns="http://www.w3.org/2000/svg" xmlns:xlink="http://www.w3.org/1999/xlink" xmlns:svgjs="http://svgjs.com/svgjs" viewBox="0.18 0 25.64 31" fill="#3d58a6"><svg xmlns="http://www.w3.org/2000/svg" width="26" height="31" viewBox="0.792 0.579 24.813 30"><path paint-order="stroke fill markers" fill-rule="evenodd" d="M25.605 21.94c0-2.661-.143-4.616-.43-5.864a3.082 3.082 0 0 0-.97-1.658 3.05 3.05 0 0 0-1.713-.78c-2.045-.224-5.143-.337-9.294-.337-4.135 0-7.225.113-9.27.338a3.015 3.015 0 0 0-1.726.779 3.113 3.113 0 0 0-.958 1.658C.943 17.384.792 19.339.792 21.94c0 2.647.15 4.602.452 5.865.15.646.47 1.195.958 1.646a2.955 2.955 0 0 0 1.703.79c2.06.226 5.158.338 9.293.338 4.136 0 7.234-.112 9.294-.338a2.955 2.955 0 0 0 1.703-.79c.488-.451.808-1 .958-1.646.3-1.263.452-3.218.452-5.865zm-1.85 2.504v.203c0 .436-.015.759-.045.97-.045.33-.158.63-.339.902-.406.602-1.007.902-1.804.902-.782 0-1.391-.285-1.827-.857-.316-.406-.474-1.052-.474-1.94v-2.909c0-.888.15-1.534.45-1.94.437-.572 1.039-.857 1.806-.857.767 0 1.353.285 1.759.857.316.421.474 1.067.474 1.94v1.714h-3v1.466c0 .767.256 1.15.767 1.15.36 0 .586-.195.676-.586a5.054 5.054 0 0 0 .023-.53v-.485h1.534zm-15.88-8.256v1.579H6.07v9.542H4.4v-9.542h-1.76v-1.58h5.234zm4.534 2.842v8.279h-1.511v-.903c-.587.677-1.158 1.015-1.715 1.015-.496 0-.812-.21-.947-.631-.09-.241-.135-.647-.135-1.218V19.03h1.488v6.09c0 .362.008.557.023.587.015.226.128.338.338.338.3 0 .617-.233.948-.7V19.03h1.51zm5.684 2.504v3.293c0 .782-.052 1.33-.158 1.647-.18.632-.58.947-1.195.947-.526 0-1.038-.308-1.534-.924v.812h-1.511V16.188h1.51v3.632c.482-.602.993-.902 1.535-.902.616 0 1.015.315 1.195.947.106.316.158.872.158 1.669zm2.662.654h1.489v-.767c0-.767-.25-1.15-.745-1.15-.496 0-.744.383-.744 1.15v.767zM15.093 9.083V6.15c0-.872-.158-1.527-.473-1.963-.437-.571-1.023-.857-1.76-.857-.767 0-1.353.286-1.76.857-.315.436-.473 1.09-.473 1.963v2.932c0 .872.158 1.526.474 1.962.406.572.992.858 1.759.858.737 0 1.323-.286 1.76-.858.315-.406.473-1.06.473-1.962zm1.512 15.857v-3.541c0-.752-.22-1.128-.655-1.128-.255 0-.503.12-.744.36v5.054c.241.24.489.36.744.36.436 0 .655-.368.655-1.105zM8.574 7.256L10.605.579H8.913L7.762 4.978 6.567.578h-1.76l.542 1.558.519 1.556c.526 1.549.872 2.737 1.037 3.564v4.534h1.669V7.256zm5.008-1.4v3.52c0 .767-.241 1.15-.722 1.15s-.722-.383-.722-1.15v-3.52c0-.78.24-1.171.722-1.171.48 0 .722.391.722 1.172zm5.594 5.934h1.51V3.444h-1.51v6.383c-.331.467-.647.7-.947.7-.226 0-.346-.121-.361-.361-.015-.03-.023-.226-.023-.587V3.444h-1.511v6.609c0 .556.045.97.135 1.24.166.407.489.61.97.61.541 0 1.12-.34 1.737-1.015v.902z"/></svg></svg>